<?xml version="1.0" encoding="utf-8"?>
<!-- Generator: Adobe Illustrator 16.0.3, SVG Export Plug-In . SVG Version: 6.00 Build 0)  -->
<!DOCTYPE svg PUBLIC "-//W3C//DTD SVG 1.1//EN" "http://www.w3.org/Graphics/SVG/1.1/DTD/svg11.dtd">
<svg version="1.1" xmlns="http://www.w3.org/2000/svg" xmlns:xlink="http://www.w3.org/1999/xlink" x="0px" y="0px" width="200px"
	 height="200px" viewBox="0 0 200 200" enable-background="new 0 0 200 200" xml:space="preserve">
<g id="Layer_4">
	<g>
		<path fill-rule="evenodd" clip-rule="evenodd" d="M74.549,193.074c-23.165-9.378-36.559-25.37-41.198-48.032
			c-5.575-27.093,5.779-47.168,25.564-65.705c23.548-22.046,19.434-47.67,16.494-79.469c27.95,23.086,49.746,46.386,54.379,81.369
			c-0.449-20.392-0.992-15.163-0.4-35.787c8.531,8.24,28.419,31.842,32.893,41.984c15.56,35.313,14.713,56.07-9.233,87.247
			c-6.221,8.08-14.774,13.457-25.048,17.503c11.892-21.505,9.82-36.846-6.961-53.421c-7.888-7.783-10.941-17.363-11.67-28.011
			c-0.19-2.61-0.02-5.234-0.02-9.074c-14.472,11.543-20.912,26.09-23.84,42.649c-0.646,0.146-1.322,0.267-1.952,0.429
			c-1.841-5.313-3.687-10.627-5.471-15.721C62.484,138.383,59.976,168.592,74.549,193.074z"/>
	</g>
	<g>
		<path fill-rule="evenodd" clip-rule="evenodd" fill="#EB1D25" d="M149.202,156.325c0,24.11-21.523,43.675-48.071,43.675
			c-26.522,0-48.054-19.564-48.054-43.675c0-24.125,21.531-43.69,48.054-43.69C127.679,112.635,149.202,132.201,149.202,156.325z"/>
	</g>
	<g>
		<path fill-rule="evenodd" clip-rule="evenodd" fill="#FFFFFF" d="M79.245,195.212c-19.521-7.904-31.106-21.695-35.021-40.792
			c-4.694-22.831,1.756-43.332,18.429-58.953c19.845-18.579,26.361-40.782,23.884-67.581c23.558,19.457,35.719,44.326,39.622,73.809
			c8.396-5.347,11.264-12.731,11.764-30.108c7.189,6.942,12.179,14.805,15.953,23.351c13.109,29.759,11.4,58.187-8.777,84.458
			c-5.243,6.809-12.455,11.949-21.115,15.359c10.021-18.125,8.281-31.66-5.861-45.628c-6.648-6.558-9.221-14.633-9.834-23.604
			c-0.161-2.2-0.016-4.411-0.016-7.649c-12.196,9.729-17.623,21.989-20.092,35.944c-0.219,1.285,0.14,3.339-0.393,3.475
			c-4.875-9.125-4.357-12.071-5.861-16.363C68.778,148.809,66.964,174.581,79.245,195.212z"/>
	</g>
</g>
<g id="Layer_1">
</g>
<g id="Layer_3">
</g>
<g id="Layer_2">
</g>
</svg>
